<svg width="130" height="47" viewBox="0 0 130 47" fill="none" xmlns="http://www.w3.org/2000/svg">
<path d="M49.5801 30.0716V16.9534C49.5801 16.7299 49.7533 16.5431 49.9734 16.5321C55.1014 16.2684 61.0413 16.8472 60.7923 23.4484C60.8934 30.3097 55.3215 30.753 49.977 30.4966C49.7569 30.4856 49.5801 30.2988 49.5801 30.0753V30.0716ZM52.3696 27.8187C52.3696 28.0348 52.532 28.2217 52.7413 28.24C55.6499 28.4671 58.1327 26.7966 57.8981 23.4228C58.1002 19.9976 55.6968 18.5726 52.7449 18.785C52.532 18.7997 52.366 18.9865 52.366 19.2063V27.8187H52.3696Z" fill="white"/>
<path d="M65.1372 30.0495V16.9716C65.1372 16.7371 65.3249 16.5503 65.5522 16.5503H74.1373C74.3683 16.5503 74.5559 16.7408 74.5523 16.9752L74.5451 18.4992C74.5451 18.7336 74.3574 18.9204 74.1301 18.9204H68.3309C68.1 18.9204 67.9159 19.1109 67.9159 19.3417V21.8767C67.9159 22.1112 68.1036 22.298 68.3309 22.298H73.2568C73.4878 22.298 73.6718 22.4885 73.6718 22.7193V24.2029C73.6718 24.4374 73.4841 24.6242 73.2568 24.6242H68.3129C68.0819 24.6242 67.8979 24.8147 67.8979 25.0455V27.6501C67.8979 27.8845 68.0855 28.0713 68.3129 28.0713L74.2348 28.0787C74.4657 28.0787 74.6498 28.2692 74.6498 28.4999V30.0422C74.6498 30.2766 74.4621 30.4635 74.2348 30.4635H65.5522C65.3212 30.4635 65.1372 30.273 65.1372 30.0422V30.0495Z" fill="white"/>
<path d="M84.3465 30.6652C81.9792 30.6908 79.2113 29.5039 78.688 27.0019C78.6339 26.7418 78.836 26.4964 79.0994 26.4964H81.1455C81.3152 26.4964 81.4775 26.5989 81.5317 26.7638C82.8597 30.6322 90.7772 26.9909 85.2053 25.053C85.1837 25.0457 85.1656 25.042 85.144 25.0347C82.6071 24.5255 78.8252 24.0016 79.0164 20.5728C79.0742 15.0669 89.128 14.946 89.7018 20.1332C89.7307 20.3823 89.5322 20.6021 89.2868 20.6021H87.3273C87.1288 20.6021 86.9592 20.4556 86.9195 20.2578C86.5586 18.4188 83.6716 18.1843 82.4988 19.1112C81.2646 20.2541 82.174 21.7561 83.751 21.9136L86.1328 22.4338C92.4047 23.5804 90.0591 31.178 84.3501 30.6688L84.3465 30.6652Z" fill="white"/>
<path d="M94.2017 30.0495V16.9716C94.2017 16.7371 94.3893 16.5503 94.6167 16.5503H96.5437C96.7747 16.5503 96.9587 16.7408 96.9587 16.9716V30.0495C96.9587 30.284 96.7711 30.4708 96.5437 30.4708H94.6167C94.3857 30.4708 94.2017 30.2803 94.2017 30.0495Z" fill="white"/>
<path d="M107.482 30.665C101.95 30.9544 100.012 23.9685 102.098 19.7191C104.108 14.8653 112.357 15.4221 113.184 20.6642C113.223 20.9207 113.028 21.1588 112.769 21.1588H110.654C110.466 21.1588 110.3 21.0342 110.253 20.8511C109.788 18.9975 107.507 18.1073 105.912 19.2099C104.093 20.4115 104.086 23.7817 104.598 25.7635C105.396 29.1484 110.17 28.848 110.473 25.5804C110.495 25.3349 110.3 25.1188 110.055 25.1188H108.066C107.835 25.1188 107.651 24.9283 107.651 24.6975V23.5985C107.651 23.3641 107.839 23.1736 108.07 23.1773L112.978 23.2029C113.205 23.2029 113.393 23.3934 113.393 23.6242V30.0533C113.393 30.2877 113.205 30.4745 112.978 30.4745H111.924C111.693 30.4745 111.509 30.284 111.509 30.0533V29.7529C111.509 29.3902 111.083 29.1887 110.82 29.4342C109.947 30.2474 108.821 30.709 107.485 30.665H107.482Z" fill="white"/>
<path d="M118.229 30.0495V16.9716C118.229 16.7371 118.416 16.5503 118.644 16.5503H120.751C120.888 16.5503 121.014 16.6199 121.094 16.7335L126.471 24.6498C126.702 24.9905 127.229 24.8257 127.229 24.4117V16.9752C127.229 16.7408 127.416 16.554 127.644 16.554H129.582C129.812 16.554 129.997 16.7444 129.997 16.9752V30.0532C129.997 30.2876 129.809 30.4745 129.582 30.4745H127.723C127.586 30.4745 127.46 30.4049 127.38 30.2913L121.747 22.0159C121.516 21.6752 120.989 21.8401 120.989 22.2577V30.0532C120.989 30.2876 120.802 30.4745 120.574 30.4745H118.647C118.416 30.4745 118.232 30.284 118.232 30.0532L118.229 30.0495Z" fill="white"/>
<path d="M24.9325 28.9546V45.8277C24.9325 46.4761 24.4165 47 23.7778 47H21.3491C19.3932 47 17.809 45.3918 17.809 43.4063V33.673C17.809 33.0539 17.3326 32.541 16.7227 32.5044C10.3245 32.1087 0 28.222 0 16.2687C0 3.61567 10.6854 0 17.809 0C23.702 0 31.0349 2.37381 34.5425 10.0777C34.8962 10.858 34.3441 11.7518 33.496 11.7518H28.9959C28.0072 11.7518 27.0581 11.3379 26.3941 10.5942C24.5031 8.47319 22.226 8.00795 18.574 8.00795C11.9087 8.00795 7.93915 12.0889 7.93915 16.2723C7.93915 20.1444 10.6854 25.3097 17.809 25.3097H21.3383C23.3231 25.3097 24.9325 26.9435 24.9325 28.9583V28.9546Z" fill="white"/>
<path d="M40.1794 47H35.6144C32.0526 45.1939 28.4908 39.7686 28.4908 32.5373C28.4908 23.3717 26.0405 21.8075 21.1399 21.5401C19.2669 21.4375 17.8054 19.855 17.8054 17.9537V16.4994C17.8054 15.851 18.3215 15.3271 18.9602 15.3271H32.0129C35.968 15.3271 39.1762 17.679 39.1762 21.6939V25.3096C39.1762 25.3096 39.1762 30.1671 36.1557 32.2186C35.8093 32.453 35.6108 32.8487 35.636 33.2699C35.9392 37.9846 39.0715 42.593 41.0744 45.0914C41.6878 45.857 41.1465 47 40.1758 47H40.1794Z" fill="white"/>
</svg>
