<svg width="130" height="48" viewBox="0 0 130 48" fill="none" xmlns="http://www.w3.org/2000/svg">
<path d="M49.5801 30.7118V17.3145C49.5801 17.0863 49.7533 16.8955 49.9734 16.8842C55.1014 16.6149 61.0413 17.206 60.7923 23.9477C60.8934 30.955 55.3215 31.4077 49.977 31.1458C49.7569 31.1346 49.5801 30.9438 49.5801 30.7156V30.7118ZM52.3696 28.411C52.3696 28.6317 52.532 28.8225 52.7413 28.8412C55.6499 29.0732 58.1327 27.3672 57.8981 23.9215C58.1002 20.4234 55.6968 18.9681 52.7449 19.1851C52.532 19.2001 52.366 19.3909 52.366 19.6153V28.411H52.3696Z" fill="#0068FF"/>
<path d="M65.1372 30.6894V17.3332C65.1372 17.0938 65.3249 16.903 65.5522 16.903H74.1373C74.3683 16.903 74.5559 17.0975 74.5523 17.3369L74.5451 18.8933C74.5451 19.1327 74.3574 19.3235 74.1301 19.3235H68.3309C68.1 19.3235 67.9159 19.5181 67.9159 19.7538V22.3427C67.9159 22.5821 68.1036 22.7729 68.3309 22.7729H73.2568C73.4878 22.7729 73.6718 22.9675 73.6718 23.2032V24.7184C73.6718 24.9578 73.4841 25.1486 73.2568 25.1486H68.3129C68.0819 25.1486 67.8979 25.3432 67.8979 25.5789V28.2389C67.8979 28.4783 68.0855 28.6691 68.3129 28.6691L74.2348 28.6766C74.4657 28.6766 74.6498 28.8712 74.6498 29.1069V30.6819C74.6498 30.9213 74.4621 31.1122 74.2348 31.1122H65.5522C65.3212 31.1122 65.1372 30.9176 65.1372 30.6819V30.6894Z" fill="#0068FF"/>
<path d="M84.3465 31.3179C81.9792 31.344 79.2113 30.1319 78.688 27.5766C78.6339 27.311 78.836 27.0603 79.0994 27.0603H81.1455C81.3152 27.0603 81.4775 27.1651 81.5317 27.3334C82.8597 31.2842 90.7772 27.5654 85.2053 25.5863C85.1837 25.5788 85.1656 25.5751 85.144 25.5676C82.6071 25.0476 78.8252 24.5126 79.0164 21.0108C79.0742 15.3877 89.128 15.2642 89.7018 20.5618C89.7307 20.8162 89.5322 21.0407 89.2868 21.0407H87.3273C87.1288 21.0407 86.9592 20.891 86.9195 20.689C86.5586 18.8109 83.6716 18.5715 82.4988 19.518C81.2646 20.6853 82.174 22.2192 83.751 22.3801L86.1328 22.9113C92.4047 24.0823 90.0591 31.8416 84.3501 31.3216L84.3465 31.3179Z" fill="#0068FF"/>
<path d="M94.2017 30.6894V17.3332C94.2017 17.0938 94.3893 16.903 94.6167 16.903H96.5437C96.7747 16.903 96.9587 17.0975 96.9587 17.3332V30.6894C96.9587 30.9288 96.7711 31.1196 96.5437 31.1196H94.6167C94.3857 31.1196 94.2017 30.9251 94.2017 30.6894Z" fill="#0068FF"/>
<path d="M107.482 31.3179C101.95 31.6134 100.012 24.4789 102.098 20.1391C104.108 15.1819 112.357 15.7506 113.184 21.1043C113.223 21.3662 113.028 21.6094 112.769 21.6094H110.654C110.466 21.6094 110.3 21.4822 110.253 21.2951C109.788 19.402 107.507 18.4929 105.912 19.619C104.093 20.8462 104.086 24.2881 104.598 26.3121C105.396 29.769 110.17 29.4622 110.473 26.125C110.495 25.8744 110.3 25.6536 110.055 25.6536H108.066C107.835 25.6536 107.651 25.4591 107.651 25.2234V24.101C107.651 23.8616 107.839 23.667 108.07 23.6708L112.978 23.697C113.205 23.697 113.393 23.8915 113.393 24.1272V30.6931C113.393 30.9325 113.205 31.1233 112.978 31.1233H111.924C111.693 31.1233 111.509 30.9288 111.509 30.6931V30.3863C111.509 30.0159 111.083 29.8101 110.82 30.0608C109.947 30.8914 108.821 31.3628 107.485 31.3179H107.482Z" fill="#0068FF"/>
<path d="M118.229 30.6894V17.3332C118.229 17.0938 118.416 16.903 118.644 16.903H120.751C120.888 16.903 121.014 16.974 121.094 17.09L126.471 25.1748C126.702 25.5228 127.229 25.3544 127.229 24.9316V17.3369C127.229 17.0975 127.416 16.9067 127.644 16.9067H129.582C129.812 16.9067 129.997 17.1012 129.997 17.3369V30.6931C129.997 30.9326 129.809 31.1234 129.582 31.1234H127.723C127.586 31.1234 127.46 31.0523 127.38 30.9363L121.747 22.4849C121.516 22.1369 120.989 22.3053 120.989 22.7318V30.6931C120.989 30.9326 120.802 31.1234 120.574 31.1234H118.647C118.416 31.1234 118.232 30.9288 118.232 30.6931L118.229 30.6894Z" fill="#0068FF"/>
<path d="M24.9325 29.5707V46.8028C24.9325 47.465 24.4165 48 23.7778 48H21.3491C19.3932 48 17.809 46.3576 17.809 44.3298V34.3894C17.809 33.7571 17.3326 33.2334 16.7227 33.1959C10.3245 32.7919 0 28.8224 0 16.6148C0 3.69259 10.6854 0 17.809 0C23.702 0 31.0349 2.42432 34.5425 10.2921C34.8962 11.089 34.3441 12.0019 33.496 12.0019H28.9959C28.0072 12.0019 27.0581 11.5791 26.3941 10.8196C24.5031 8.65347 22.226 8.17833 18.574 8.17833C11.9087 8.17833 7.93915 12.3461 7.93915 16.6185C7.93915 20.573 10.6854 25.8482 17.809 25.8482H21.3383C23.3231 25.8482 24.9325 27.5168 24.9325 29.5744V29.5707Z" fill="#0068FF"/>
<path d="M40.1794 48H35.6144C32.0526 46.1556 28.4908 40.6148 28.4908 33.2296C28.4908 23.8691 26.0405 22.2716 21.1399 21.9984C19.2669 21.8937 17.8054 20.2775 17.8054 18.3358V16.8505C17.8054 16.1883 18.3215 15.6533 18.9602 15.6533H32.0129C35.968 15.6533 39.1762 18.0552 39.1762 22.1556V25.8482C39.1762 25.8482 39.1762 30.809 36.1557 32.9041C35.8093 33.1436 35.6108 33.5476 35.636 33.9779C35.9392 38.7928 39.0715 43.4993 41.0744 46.0508C41.6878 46.8327 41.1465 48 40.1758 48H40.1794Z" fill="#0068FF"/>
</svg>
